STARTFONT 2.1
FONT -FontForge-04b11-Book-R-Normal--8-80-75-75-P-61-ISO10646-1
SIZE 8 75 75
FONTBOUNDINGBOX 8 8 0 -2
COMMENT "Generated by fontforge, http://fontforge.sourceforge.net"
COMMENT "1999-2003 / yuji oshimoo / 04@dsg4.com / www.04.jp.org"
STARTPROPERTIES 39
FOUNDRY "FontForge"
FAMILY_NAME "04b11"
WEIGHT_NAME "Book"
SLANT "R"
SETWIDTH_NAME "Normal"
ADD_STYLE_NAME ""
PIXEL_SIZE 8
POINT_SIZE 80
RESOLUTION_X 75
RESOLUTION_Y 75
SPACING "P"
AVERAGE_WIDTH 61
CHARSET_REGISTRY "ISO10646"
CHARSET_ENCODING "1"
FONTNAME_REGISTRY ""
CHARSET_COLLECTIONS "ISO10646-1"
FONT_NAME "04b11"
FACE_NAME "04b11"
COPYRIGHT "1999-2003 / yuji oshimoo / 04@dsg4.com / www.04.jp.org"
FONT_VERSION "Macromedia Fonographer 4.1J 03.3.25"
FONT_ASCENT 6
FONT_DESCENT 2
UNDERLINE_POSITION -1
UNDERLINE_THICKNESS 1
X_HEIGHT 3
CAP_HEIGHT 4
RAW_ASCENT 750
RAW_DESCENT 250
NORM_SPACE 4
RELATIVE_WEIGHT 40
RELATIVE_SETWIDTH 50
SUPERSCRIPT_X 0
SUPERSCRIPT_Y 3
SUPERSCRIPT_SIZE 5
SUBSCRIPT_X 0
SUBSCRIPT_Y 1
SUBSCRIPT_SIZE 5
AVG_LOWERCASE_WIDTH 67
AVG_UPPERCASE_WIDTH 70
ENDPROPERTIES
CHARS 101
STARTCHAR space
ENCODING 32
SWIDTH 500 0
DWIDTH 4 0
BBX 1 1 0 0
BITMAP
00
ENDCHAR
STARTCHAR exclam
ENCODING 33
SWIDTH 375 0
DWIDTH 3 0
BBX 2 5 0 0
BITMAP
C0
C0
C0
00
C0
ENDCHAR
STARTCHAR quotedbl
ENCODING 34
SWIDTH 750 0
DWIDTH 6 0
BBX 5 2 0 3
BITMAP
D8
D8
ENDCHAR
STARTCHAR numbersign
ENCODING 35
SWIDTH 1000 0
DWIDTH 8 0
BBX 7 5 0 0
BITMAP
6C
FE
6C
FE
6C
ENDCHAR
STARTCHAR dollar
ENCODING 36
SWIDTH 1000 0
DWIDTH 8 0
BBX 7 5 0 0
BITMAP
7E
D8
FE
36
FC
ENDCHAR
STARTCHAR percent
ENCODING 37
SWIDTH 875 0
DWIDTH 7 0
BBX 6 5 0 0
BITMAP
CC
D8
30
6C
CC
ENDCHAR
STARTCHAR ampersand
ENCODING 38
SWIDTH 875 0
DWIDTH 7 0
BBX 6 5 0 0
BITMAP
70
D8
70
DC
78
ENDCHAR
STARTCHAR quotesingle
ENCODING 39
SWIDTH 375 0
DWIDTH 3 0
BBX 2 2 0 3
BITMAP
C0
C0
ENDCHAR
STARTCHAR parenleft
ENCODING 40
SWIDTH 500 0
DWIDTH 4 0
BBX 3 5 0 0
BITMAP
60
C0
C0
C0
60
ENDCHAR
STARTCHAR parenright
ENCODING 41
SWIDTH 500 0
DWIDTH 4 0
BBX 3 5 0 0
BITMAP
C0
60
60
60
C0
ENDCHAR
STARTCHAR asterisk
ENCODING 42
SWIDTH 750 0
DWIDTH 6 0
BBX 5 3 0 2
BITMAP
D8
70
D8
ENDCHAR
STARTCHAR plus
ENCODING 43
SWIDTH 875 0
DWIDTH 7 0
BBX 6 5 0 0
BITMAP
30
30
FC
30
30
ENDCHAR
STARTCHAR comma
ENCODING 44
SWIDTH 375 0
DWIDTH 3 0
BBX 2 3 0 -1
BITMAP
C0
C0
C0
ENDCHAR
STARTCHAR hyphen
ENCODING 45
SWIDTH 875 0
DWIDTH 7 0
BBX 6 1 0 2
BITMAP
FC
ENDCHAR
STARTCHAR period
ENCODING 46
SWIDTH 375 0
DWIDTH 3 0
BBX 2 2 0 0
BITMAP
C0
C0
ENDCHAR
STARTCHAR slash
ENCODING 47
SWIDTH 875 0
DWIDTH 7 0
BBX 6 5 0 0
BITMAP
0C
18
30
60
C0
ENDCHAR
STARTCHAR zero
ENCODING 48
SWIDTH 875 0
DWIDTH 7 0
BBX 6 5 0 0
BITMAP
78
CC
CC
CC
78
ENDCHAR
STARTCHAR one
ENCODING 49
SWIDTH 500 0
DWIDTH 4 0
BBX 3 5 0 0
BITMAP
E0
60
60
60
60
ENDCHAR
STARTCHAR two
ENCODING 50
SWIDTH 875 0
DWIDTH 7 0
BBX 6 5 0 0
BITMAP
F8
0C
78
C0
FC
ENDCHAR
STARTCHAR three
ENCODING 51
SWIDTH 875 0
DWIDTH 7 0
BBX 6 5 0 0
BITMAP
F8
0C
78
0C
F8
ENDCHAR
STARTCHAR four
ENCODING 52
SWIDTH 875 0
DWIDTH 7 0
BBX 6 5 0 0
BITMAP
38
78
D8
FC
18
ENDCHAR
STARTCHAR five
ENCODING 53
SWIDTH 875 0
DWIDTH 7 0
BBX 6 5 0 0
BITMAP
FC
C0
F8
0C
F8
ENDCHAR
STARTCHAR six
ENCODING 54
SWIDTH 875 0
DWIDTH 7 0
BBX 6 5 0 0
BITMAP
78
C0
F8
CC
78
ENDCHAR
STARTCHAR seven
ENCODING 55
SWIDTH 875 0
DWIDTH 7 0
BBX 6 5 0 0
BITMAP
FC
0C
18
30
60
ENDCHAR
STARTCHAR eight
ENCODING 56
SWIDTH 875 0
DWIDTH 7 0
BBX 6 5 0 0
BITMAP
78
CC
78
CC
78
ENDCHAR
STARTCHAR nine
ENCODING 57
SWIDTH 875 0
DWIDTH 7 0
BBX 6 5 0 0
BITMAP
78
CC
7C
0C
78
ENDCHAR
STARTCHAR colon
ENCODING 58
SWIDTH 375 0
DWIDTH 3 0
BBX 2 3 0 1
BITMAP
C0
00
C0
ENDCHAR
STARTCHAR semicolon
ENCODING 59
SWIDTH 375 0
DWIDTH 3 0
BBX 2 4 0 0
BITMAP
C0
00
C0
C0
ENDCHAR
STARTCHAR less
ENCODING 60
SWIDTH 625 0
DWIDTH 5 0
BBX 4 5 0 0
BITMAP
30
60
C0
60
30
ENDCHAR
STARTCHAR equal
ENCODING 61
SWIDTH 875 0
DWIDTH 7 0
BBX 6 3 0 1
BITMAP
FC
00
FC
ENDCHAR
STARTCHAR greater
ENCODING 62
SWIDTH 625 0
DWIDTH 5 0
BBX 4 5 0 0
BITMAP
C0
60
30
60
C0
ENDCHAR
STARTCHAR question
ENCODING 63
SWIDTH 875 0
DWIDTH 7 0
BBX 6 5 0 0
BITMAP
F8
1C
78
00
60
ENDCHAR
STARTCHAR at
ENCODING 64
SWIDTH 1000 0
DWIDTH 8 0
BBX 7 5 0 0
BITMAP
7C
C6
DE
D6
7C
ENDCHAR
STARTCHAR A
ENCODING 65
SWIDTH 875 0
DWIDTH 7 0
BBX 6 5 0 0
BITMAP
78
CC
FC
CC
CC
ENDCHAR
STARTCHAR B
ENCODING 66
SWIDTH 875 0
DWIDTH 7 0
BBX 6 5 0 0
BITMAP
F8
CC
F8
CC
F8
ENDCHAR
STARTCHAR C
ENCODING 67
SWIDTH 875 0
DWIDTH 7 0
BBX 6 5 0 0
BITMAP
78
CC
C0
CC
78
ENDCHAR
STARTCHAR D
ENCODING 68
SWIDTH 875 0
DWIDTH 7 0
BBX 6 5 0 0
BITMAP
F8
CC
CC
CC
F8
ENDCHAR
STARTCHAR E
ENCODING 69
SWIDTH 875 0
DWIDTH 7 0
BBX 6 5 0 0
BITMAP
FC
C0
F8
C0
FC
ENDCHAR
STARTCHAR F
ENCODING 70
SWIDTH 875 0
DWIDTH 7 0
BBX 6 5 0 0
BITMAP
FC
C0
F8
C0
C0
ENDCHAR
STARTCHAR G
ENCODING 71
SWIDTH 875 0
DWIDTH 7 0
BBX 6 5 0 0
BITMAP
7C
C0
DC
CC
7C
ENDCHAR
STARTCHAR H
ENCODING 72
SWIDTH 875 0
DWIDTH 7 0
BBX 6 5 0 0
BITMAP
CC
CC
FC
CC
CC
ENDCHAR
STARTCHAR I
ENCODING 73
SWIDTH 625 0
DWIDTH 5 0
BBX 4 5 0 0
BITMAP
F0
60
60
60
F0
ENDCHAR
STARTCHAR J
ENCODING 74
SWIDTH 875 0
DWIDTH 7 0
BBX 6 5 0 0
BITMAP
3C
0C
0C
CC
78
ENDCHAR
STARTCHAR K
ENCODING 75
SWIDTH 875 0
DWIDTH 7 0
BBX 6 5 0 0
BITMAP
CC
D8
F0
D8
CC
ENDCHAR
STARTCHAR L
ENCODING 76
SWIDTH 875 0
DWIDTH 7 0
BBX 6 5 0 0
BITMAP
C0
C0
C0
C0
FC
ENDCHAR
STARTCHAR M
ENCODING 77
SWIDTH 1000 0
DWIDTH 8 0
BBX 7 5 0 0
BITMAP
C6
EE
FE
D6
C6
ENDCHAR
STARTCHAR N
ENCODING 78
SWIDTH 875 0
DWIDTH 7 0
BBX 6 5 0 0
BITMAP
CC
EC
FC
DC
CC
ENDCHAR
STARTCHAR O
ENCODING 79
SWIDTH 875 0
DWIDTH 7 0
BBX 6 5 0 0
BITMAP
78
CC
CC
CC
78
ENDCHAR
STARTCHAR P
ENCODING 80
SWIDTH 875 0
DWIDTH 7 0
BBX 6 5 0 0
BITMAP
F8
CC
CC
F8
C0
ENDCHAR
STARTCHAR Q
ENCODING 81
SWIDTH 875 0
DWIDTH 7 0
BBX 6 6 0 -1
BITMAP
78
CC
CC
CC
78
18
ENDCHAR
STARTCHAR R
ENCODING 82
SWIDTH 875 0
DWIDTH 7 0
BBX 6 5 0 0
BITMAP
F8
CC
CC
F8
DC
ENDCHAR
STARTCHAR S
ENCODING 83
SWIDTH 875 0
DWIDTH 7 0
BBX 6 5 0 0
BITMAP
7C
C0
78
0C
F8
ENDCHAR
STARTCHAR T
ENCODING 84
SWIDTH 875 0
DWIDTH 7 0
BBX 6 5 0 0
BITMAP
FC
30
30
30
30
ENDCHAR
STARTCHAR U
ENCODING 85
SWIDTH 875 0
DWIDTH 7 0
BBX 6 5 0 0
BITMAP
CC
CC
CC
CC
78
ENDCHAR
STARTCHAR V
ENCODING 86
SWIDTH 875 0
DWIDTH 7 0
BBX 6 5 0 0
BITMAP
CC
CC
78
78
30
ENDCHAR
STARTCHAR W
ENCODING 87
SWIDTH 1125 0
DWIDTH 9 0
BBX 8 5 0 0
BITMAP
DB
DB
DB
FF
66
ENDCHAR
STARTCHAR X
ENCODING 88
SWIDTH 875 0
DWIDTH 7 0
BBX 6 5 0 0
BITMAP
CC
78
30
78
CC
ENDCHAR
STARTCHAR Y
ENCODING 89
SWIDTH 875 0
DWIDTH 7 0
BBX 6 5 0 0
BITMAP
CC
CC
78
30
30
ENDCHAR
STARTCHAR Z
ENCODING 90
SWIDTH 875 0
DWIDTH 7 0
BBX 6 5 0 0
BITMAP
FC
18
30
60
FC
ENDCHAR
STARTCHAR bracketleft
ENCODING 91
SWIDTH 500 0
DWIDTH 4 0
BBX 3 5 0 0
BITMAP
E0
C0
C0
C0
E0
ENDCHAR
STARTCHAR backslash
ENCODING 92
SWIDTH 875 0
DWIDTH 7 0
BBX 6 5 0 0
BITMAP
C0
60
30
18
0C
ENDCHAR
STARTCHAR bracketright
ENCODING 93
SWIDTH 500 0
DWIDTH 4 0
BBX 3 5 0 0
BITMAP
E0
60
60
60
E0
ENDCHAR
STARTCHAR asciicircum
ENCODING 94
SWIDTH 625 0
DWIDTH 5 0
BBX 4 2 0 3
BITMAP
60
F0
ENDCHAR
STARTCHAR underscore
ENCODING 95
SWIDTH 875 0
DWIDTH 7 0
BBX 6 1 0 0
BITMAP
FC
ENDCHAR
STARTCHAR grave
ENCODING 96
SWIDTH 500 0
DWIDTH 4 0
BBX 1 1 0 0
BITMAP
00
ENDCHAR
STARTCHAR a
ENCODING 97
SWIDTH 875 0
DWIDTH 7 0
BBX 6 4 0 0
BITMAP
7C
CC
CC
7C
ENDCHAR
STARTCHAR b
ENCODING 98
SWIDTH 875 0
DWIDTH 7 0
BBX 6 5 0 0
BITMAP
C0
F8
CC
CC
F8
ENDCHAR
STARTCHAR c
ENCODING 99
SWIDTH 875 0
DWIDTH 7 0
BBX 6 4 0 0
BITMAP
7C
C0
C0
7C
ENDCHAR
STARTCHAR d
ENCODING 100
SWIDTH 875 0
DWIDTH 7 0
BBX 6 5 0 0
BITMAP
0C
7C
CC
CC
7C
ENDCHAR
STARTCHAR e
ENCODING 101
SWIDTH 875 0
DWIDTH 7 0
BBX 6 4 0 0
BITMAP
78
DC
E0
78
ENDCHAR
STARTCHAR f
ENCODING 102
SWIDTH 875 0
DWIDTH 7 0
BBX 6 5 0 0
BITMAP
3C
60
FC
60
60
ENDCHAR
STARTCHAR g
ENCODING 103
SWIDTH 875 0
DWIDTH 7 0
BBX 6 6 0 -2
BITMAP
7C
CC
CC
7C
18
30
ENDCHAR
STARTCHAR h
ENCODING 104
SWIDTH 875 0
DWIDTH 7 0
BBX 6 5 0 0
BITMAP
C0
F8
CC
CC
CC
ENDCHAR
STARTCHAR i
ENCODING 105
SWIDTH 375 0
DWIDTH 3 0
BBX 2 5 0 0
BITMAP
C0
00
C0
C0
C0
ENDCHAR
STARTCHAR j
ENCODING 106
SWIDTH 625 0
DWIDTH 5 0
BBX 4 7 0 -2
BITMAP
30
00
30
30
30
60
C0
ENDCHAR
STARTCHAR k
ENCODING 107
SWIDTH 875 0
DWIDTH 7 0
BBX 6 5 0 0
BITMAP
C0
DC
F0
D8
CC
ENDCHAR
STARTCHAR l
ENCODING 108
SWIDTH 375 0
DWIDTH 3 0
BBX 2 5 0 0
BITMAP
C0
C0
C0
C0
C0
ENDCHAR
STARTCHAR m
ENCODING 109
SWIDTH 1125 0
DWIDTH 9 0
BBX 8 4 0 0
BITMAP
FE
DB
DB
DB
ENDCHAR
STARTCHAR n
ENCODING 110
SWIDTH 875 0
DWIDTH 7 0
BBX 6 4 0 0
BITMAP
F8
CC
CC
CC
ENDCHAR
STARTCHAR o
ENCODING 111
SWIDTH 875 0
DWIDTH 7 0
BBX 6 4 0 0
BITMAP
78
CC
CC
78
ENDCHAR
STARTCHAR p
ENCODING 112
SWIDTH 875 0
DWIDTH 7 0
BBX 6 5 0 -1
BITMAP
F8
CC
CC
F8
C0
ENDCHAR
STARTCHAR q
ENCODING 113
SWIDTH 875 0
DWIDTH 7 0
BBX 6 5 0 -1
BITMAP
7C
CC
CC
7C
0C
ENDCHAR
STARTCHAR r
ENCODING 114
SWIDTH 875 0
DWIDTH 7 0
BBX 6 4 0 0
BITMAP
DC
F0
C0
C0
ENDCHAR
STARTCHAR s
ENCODING 115
SWIDTH 875 0
DWIDTH 7 0
BBX 6 4 0 0
BITMAP
7C
F0
3C
F8
ENDCHAR
STARTCHAR t
ENCODING 116
SWIDTH 875 0
DWIDTH 7 0
BBX 6 5 0 0
BITMAP
60
FC
60
6C
38
ENDCHAR
STARTCHAR u
ENCODING 117
SWIDTH 875 0
DWIDTH 7 0
BBX 6 4 0 0
BITMAP
CC
CC
CC
78
ENDCHAR
STARTCHAR v
ENCODING 118
SWIDTH 875 0
DWIDTH 7 0
BBX 6 4 0 0
BITMAP
CC
CC
78
30
ENDCHAR
STARTCHAR w
ENCODING 119
SWIDTH 1125 0
DWIDTH 9 0
BBX 8 4 0 0
BITMAP
DB
DB
DB
FE
ENDCHAR
STARTCHAR x
ENCODING 120
SWIDTH 875 0
DWIDTH 7 0
BBX 6 4 0 0
BITMAP
CC
78
78
CC
ENDCHAR
STARTCHAR y
ENCODING 121
SWIDTH 875 0
DWIDTH 7 0
BBX 6 6 0 -2
BITMAP
CC
CC
CC
7C
0C
18
ENDCHAR
STARTCHAR z
ENCODING 122
SWIDTH 875 0
DWIDTH 7 0
BBX 6 4 0 0
BITMAP
FC
38
70
FC
ENDCHAR
STARTCHAR braceleft
ENCODING 123
SWIDTH 625 0
DWIDTH 5 0
BBX 4 5 0 0
BITMAP
70
60
C0
60
70
ENDCHAR
STARTCHAR bar
ENCODING 124
SWIDTH 375 0
DWIDTH 3 0
BBX 2 5 0 0
BITMAP
C0
C0
C0
C0
C0
ENDCHAR
STARTCHAR braceright
ENCODING 125
SWIDTH 625 0
DWIDTH 5 0
BBX 4 5 0 0
BITMAP
E0
60
30
60
E0
ENDCHAR
STARTCHAR asciitilde
ENCODING 126
SWIDTH 625 0
DWIDTH 5 0
BBX 4 2 0 3
BITMAP
70
E0
ENDCHAR
STARTCHAR nonbreakingspace
ENCODING 160
SWIDTH 625 0
DWIDTH 5 0
BBX 1 1 0 0
BITMAP
00
ENDCHAR
STARTCHAR hyphen.dup1
ENCODING 8208
SWIDTH 875 0
DWIDTH 7 0
BBX 6 1 0 2
BITMAP
FC
ENDCHAR
STARTCHAR .notdef
ENCODING -1
SWIDTH 500 0
DWIDTH 4 0
BBX 3 6 0 0
BITMAP
E0
A0
A0
A0
A0
E0
ENDCHAR
STARTCHAR .null
ENCODING -1
SWIDTH 0 0
DWIDTH 0 0
BBX 1 1 0 0
BITMAP
00
ENDCHAR
STARTCHAR nonmarkingreturn
ENCODING -1
SWIDTH 500 0
DWIDTH 4 0
BBX 1 1 0 0
BITMAP
00
ENDCHAR
STARTCHAR DEL
ENCODING -1
SWIDTH 500 0
DWIDTH 4 0
BBX 1 1 0 0
BITMAP
00
ENDCHAR
ENDFONT
